<?xml version="1.0" encoding="utf-8"?>
<!-- Generator: Adobe Illustrator 16.0.0, SVG Export Plug-In . SVG Version: 6.00 Build 0)  -->
<!DOCTYPE svg PUBLIC "-//W3C//DTD SVG 1.1//EN" "http://www.w3.org/Graphics/SVG/1.1/DTD/svg11.dtd">
<svg version="1.1" id="Calque_1" xmlns="http://www.w3.org/2000/svg" xmlns:xlink="http://www.w3.org/1999/xlink" x="0px" y="0px"
	 width="841.889px" height="843.084px" viewBox="0 0 841.889 843.084" enable-background="new 0 0 841.889 843.084"
	 xml:space="preserve">
<g>
	<g>
		<path d="M415.169,68.399H141.992c-30.884,0-56.008,25.125-56.008,56.019v426.087c0,30.883,25.135,56.008,56.019,56.008h273.166
			c15.431,0,29.442-6.273,39.583-16.426c1.585-1.585,3.071-3.268,4.459-5.026c0.558-0.7,1.093-1.422,1.617-2.154c0,0,0,0,0-0.011
			c1.301-1.824,2.503-3.737,3.585-5.715c0.863-1.596,1.65-3.224,2.36-4.896c0.535-1.256,1.017-2.535,1.465-3.835
			c1.912-5.64,2.95-11.672,2.95-17.944V124.418C471.188,93.524,446.052,68.399,415.169,68.399z M424.841,550.506
			c0,0.152,0,0.316-0.022,0.469c0.011,0.088,0,0.187-0.011,0.273c0,0.066-0.011,0.121-0.022,0.186c0,0.154-0.021,0.296-0.044,0.448
			c-0.043,0.307-0.098,0.602-0.174,0.896c-0.033,0.143-0.066,0.284-0.12,0.426c0,0.044-0.011,0.088-0.033,0.121
			c-0.011,0.065-0.033,0.131-0.055,0.186c-0.284,0.863-0.678,1.66-1.181,2.393c-0.35,0.515-0.742,0.995-1.18,1.433
			c-1.759,1.759-4.164,2.841-6.831,2.841H142.003c-2.994,0-5.683-1.377-7.464-3.529c-0.153-0.175-0.295-0.361-0.426-0.547
			c-0.416-0.568-0.754-1.19-1.027-1.836c-0.065-0.143-0.121-0.295-0.175-0.437c-0.285-0.776-0.481-1.607-0.546-2.459
			c-0.033-0.284-0.044-0.569-0.044-0.863V124.418c0-5.333,4.339-9.671,9.672-9.671h273.176c5.333,0,9.672,4.338,9.672,9.671V550.506
			z"/>
		<path fill="#FFFFFF" d="M415.169,114.747H141.992c-5.333,0-9.672,4.338-9.672,9.671v426.087c0,0.294,0.011,0.579,0.044,0.863
			c0.065,0.852,0.262,1.683,0.546,2.459c0.054,0.142,0.109,0.294,0.175,0.437c0.273,0.646,0.611,1.268,1.027,1.836
			c0.131,0.186,0.273,0.372,0.426,0.547c1.782,2.152,4.47,3.529,7.464,3.529h273.166c2.667,0,5.071-1.082,6.831-2.841
			c0.438-0.438,0.83-0.918,1.18-1.433c0.503-0.732,0.896-1.529,1.181-2.393c0.021-0.055,0.044-0.12,0.055-0.186
			c0.022-0.033,0.033-0.077,0.033-0.121c0.054-0.142,0.087-0.283,0.12-0.426c0.076-0.295,0.131-0.59,0.174-0.896
			c0.022-0.152,0.044-0.294,0.044-0.448c0.012-0.064,0.022-0.119,0.022-0.186c0.011-0.087,0.021-0.186,0.011-0.273
			c0.022-0.152,0.022-0.316,0.022-0.469V124.418C424.841,119.085,420.502,114.747,415.169,114.747z M368.745,439.506H186.011
			c-9.606,0-17.387-7.781-17.387-17.376c0-9.595,7.781-17.376,17.387-17.376h182.734c9.595,0,17.375,7.781,17.375,17.376
			C386.121,431.724,378.34,439.506,368.745,439.506z M368.745,378.689H186.011c-9.606,0-17.387-7.781-17.387-17.376
			c0-9.606,7.781-17.376,17.387-17.376h182.734c9.595,0,17.375,7.771,17.375,17.376C386.121,370.908,378.34,378.689,368.745,378.689
			z M368.745,317.873H186.011c-9.606,0-17.387-7.781-17.387-17.388c0-9.595,7.781-17.376,17.387-17.376h182.734
			c9.595,0,17.375,7.781,17.375,17.376C386.121,310.092,378.34,317.873,368.745,317.873z"/>
		<path d="M386.121,300.485c0,9.606-7.781,17.388-17.375,17.388H186.011c-9.606,0-17.387-7.781-17.387-17.388
			c0-9.595,7.781-17.376,17.387-17.376h182.734C378.34,283.109,386.121,290.89,386.121,300.485z"/>
		<path d="M386.121,361.313c0,9.596-7.781,17.376-17.375,17.376H186.011c-9.606,0-17.387-7.781-17.387-17.376
			c0-9.606,7.781-17.376,17.387-17.376h182.734C378.34,343.936,386.121,351.707,386.121,361.313z"/>
		<path d="M386.121,422.13c0,9.595-7.781,17.376-17.375,17.376H186.011c-9.606,0-17.387-7.781-17.387-17.376
			c0-9.595,7.781-17.376,17.387-17.376h182.734C378.34,404.753,386.121,412.534,386.121,422.13z"/>
	</g>
	<g>
		<path d="M552.866,154.187H279.69c-30.884,0-56.008,25.125-56.008,56.02v426.086c0,30.884,25.135,56.008,56.019,56.008h273.166
			c15.431,0,29.441-6.272,39.582-16.425c1.585-1.585,3.071-3.269,4.459-5.027c0.559-0.7,1.093-1.421,1.618-2.153c0,0,0,0,0-0.011
			c1.3-1.825,2.503-3.737,3.585-5.715c0.863-1.596,1.649-3.225,2.359-4.896c0.535-1.256,1.017-2.536,1.465-3.836
			c1.913-5.639,2.95-11.671,2.95-17.944V210.206C608.885,179.312,583.749,154.187,552.866,154.187z M562.538,636.293
			c0,0.153,0,0.317-0.022,0.47c0.011,0.088,0,0.186-0.011,0.273c0,0.066-0.01,0.12-0.021,0.186c0,0.153-0.021,0.296-0.044,0.448
			c-0.044,0.307-0.099,0.601-0.174,0.896c-0.033,0.142-0.066,0.284-0.121,0.426c0,0.044-0.011,0.088-0.033,0.121
			c-0.011,0.064-0.033,0.131-0.055,0.186c-0.283,0.863-0.677,1.66-1.18,2.393c-0.351,0.515-0.743,0.994-1.181,1.432
			c-1.759,1.759-4.163,2.842-6.83,2.842H279.7c-2.994,0-5.682-1.377-7.464-3.529c-0.153-0.176-0.295-0.361-0.426-0.547
			c-0.416-0.568-0.754-1.191-1.027-1.837c-0.066-0.142-0.121-0.294-0.175-0.437c-0.284-0.775-0.48-1.607-0.546-2.459
			c-0.033-0.283-0.043-0.568-0.043-0.863V210.206c0-5.333,4.339-9.672,9.671-9.672h273.177c5.333,0,9.672,4.339,9.672,9.672V636.293
			z"/>
		<path fill="#FFFFFF" d="M552.866,200.534H279.69c-5.333,0-9.671,4.339-9.671,9.672v426.086c0,0.295,0.011,0.58,0.043,0.863
			c0.066,0.852,0.262,1.684,0.546,2.459c0.055,0.143,0.109,0.295,0.175,0.437c0.273,0.646,0.611,1.269,1.027,1.837
			c0.13,0.186,0.273,0.371,0.426,0.547c1.782,2.152,4.47,3.529,7.464,3.529h273.166c2.667,0,5.071-1.083,6.83-2.842
			c0.438-0.438,0.83-0.917,1.181-1.432c0.503-0.732,0.896-1.529,1.18-2.393c0.021-0.055,0.044-0.121,0.055-0.186
			c0.022-0.033,0.033-0.077,0.033-0.121c0.055-0.142,0.088-0.284,0.121-0.426c0.075-0.296,0.13-0.59,0.174-0.896
			c0.022-0.152,0.044-0.295,0.044-0.448c0.012-0.065,0.021-0.119,0.021-0.186c0.011-0.088,0.021-0.186,0.011-0.273
			c0.022-0.152,0.022-0.316,0.022-0.47V210.206C562.538,204.873,558.199,200.534,552.866,200.534z M506.444,525.293H323.709
			c-9.606,0-17.387-7.781-17.387-17.375c0-9.596,7.781-17.377,17.387-17.377h182.734c9.594,0,17.375,7.781,17.375,17.377
			C523.819,517.511,516.037,525.293,506.444,525.293z M506.444,464.477H323.709c-9.606,0-17.387-7.781-17.387-17.377
			c0-9.605,7.781-17.376,17.387-17.376h182.734c9.594,0,17.375,7.771,17.375,17.376
			C523.819,456.696,516.037,464.477,506.444,464.477z M506.444,403.66H323.709c-9.606,0-17.387-7.781-17.387-17.387
			c0-9.595,7.781-17.376,17.387-17.376h182.734c9.594,0,17.375,7.781,17.375,17.376C523.819,395.879,516.037,403.66,506.444,403.66z
			"/>
		<path d="M523.819,386.273c0,9.606-7.781,17.387-17.375,17.387H323.709c-9.606,0-17.387-7.781-17.387-17.387
			c0-9.595,7.781-17.376,17.387-17.376h182.734C516.037,368.897,523.819,376.678,523.819,386.273z"/>
		<path d="M523.819,447.1c0,9.596-7.781,17.377-17.375,17.377H323.709c-9.606,0-17.387-7.781-17.387-17.377
			c0-9.605,7.781-17.376,17.387-17.376h182.734C516.037,429.724,523.819,437.495,523.819,447.1z"/>
		<path d="M523.819,507.918c0,9.594-7.781,17.375-17.375,17.375H323.709c-9.606,0-17.387-7.781-17.387-17.375
			c0-9.596,7.781-17.377,17.387-17.377h182.734C516.037,490.541,523.819,498.322,523.819,507.918z"/>
	</g>
	<g>
		<path d="M755.861,349.188c-0.021-0.383-0.054-0.776-0.098-1.159c-0.033-0.339-0.077-0.688-0.131-1.027
			c-0.022-0.098-0.033-0.197-0.044-0.295c-0.055-0.295-0.11-0.601-0.175-0.896c-0.022-0.12-0.055-0.229-0.077-0.35
			c-0.088-0.371-0.175-0.754-0.284-1.125c0,0,0,0,0-0.011c-0.098-0.372-0.219-0.744-0.35-1.115
			c-0.011-0.055-0.021-0.109-0.055-0.165c-0.088-0.284-0.196-0.579-0.307-0.863c-0.043-0.12-0.098-0.24-0.142-0.36
			c-0.142-0.35-0.284-0.689-0.448-1.027c-0.174-0.382-0.359-0.754-0.557-1.125c-0.197-0.372-0.405-0.744-0.623-1.104
			c-0.208-0.35-0.427-0.689-0.656-1.028c-0.021-0.043-0.044-0.076-0.064-0.098c-0.219-0.317-0.438-0.634-0.678-0.94
			c-0.022-0.033-0.044-0.077-0.077-0.109c-0.229-0.306-0.47-0.601-0.732-0.896c-0.021-0.033-0.054-0.065-0.087-0.109
			c-0.229-0.262-0.459-0.524-0.71-0.787c-0.11-0.12-0.219-0.24-0.34-0.35c-0.186-0.197-0.382-0.394-0.579-0.579
			c-0.338-0.317-0.678-0.623-1.026-0.918c-0.296-0.251-0.613-0.502-0.93-0.743c-5.803-4.393-13.332-5.825-20.337-3.858
			l-42.326,11.89h-0.011l-48.784,13.694l5.485-50.161l4.732-43.364c0.722-6.568-1.388-13.136-5.803-18.054
			c-0.558-0.612-1.137-1.191-1.738-1.749l-0.601-0.513c-0.176-0.153-0.35-0.295-0.536-0.438c-0.152-0.131-0.306-0.251-0.47-0.36
			c-0.207-0.153-0.415-0.306-0.623-0.459c-0.021-0.011-0.043-0.033-0.076-0.043c-0.262-0.186-0.524-0.372-0.798-0.536
			c-0.907-0.579-1.836-1.082-2.797-1.519c-0.187-0.098-0.384-0.175-0.569-0.251c-0.295-0.131-0.59-0.251-0.896-0.361
			c-0.197-0.076-0.383-0.152-0.579-0.208c-0.229-0.087-0.459-0.164-0.688-0.229c-0.634-0.208-1.289-0.382-1.945-0.524
			c-0.186-0.044-0.372-0.076-0.558-0.109c-0.229-0.054-0.459-0.087-0.688-0.12c-0.065-0.022-0.142-0.033-0.219-0.043
			c-0.295-0.044-0.59-0.088-0.896-0.12c-0.119-0.011-0.24-0.022-0.36-0.033c-0.262-0.033-0.524-0.055-0.786-0.065
			c-0.492-0.033-0.995-0.055-1.498-0.055h-196.93c-31.002,0-56.226,25.233-56.226,56.237v427.803
			c0,31.004,25.223,56.227,56.226,56.227h274.271c31.004,0,56.237-25.223,56.237-56.227V350.51
			C755.905,350.073,755.893,349.625,755.861,349.188z M709.382,718.458c0,5.355-4.36,9.704-9.715,9.704H425.397
			c-5.343,0-9.704-4.349-9.704-9.704V290.655c0-5.354,4.361-9.704,9.704-9.704h170.985l-11.135,101.961
			c-0.842,7.683,2.196,15.289,8.086,20.283c1.334,1.126,2.776,2.087,4.285,2.875c0.601,0.316,1.212,0.601,1.836,0.863
			c2.83,1.17,5.857,1.771,8.917,1.771c2.099,0,4.218-0.284,6.284-0.863l94.727-26.6V718.458z"/>
		<path fill="#FFFFFF" d="M614.656,407.84c-2.066,0.58-4.186,0.863-6.284,0.863c-3.06,0-6.087-0.601-8.917-1.771
			c-0.624-0.251-1.235-0.546-1.836-0.863c-1.509-0.787-2.951-1.749-4.285-2.875c-5.89-4.994-8.928-12.6-8.086-20.283l11.135-101.961
			H425.397c-5.343,0-9.704,4.35-9.704,9.704v427.803c0,5.355,4.361,9.704,9.704,9.704h274.271c5.354,0,9.715-4.349,9.715-9.704
			V381.24L614.656,407.84z M653.058,607.021H469.592c-9.64,0-17.441-7.814-17.441-17.452c0-9.64,7.802-17.442,17.441-17.442h183.466
			c9.639,0,17.441,7.803,17.441,17.442C670.499,599.207,662.697,607.021,653.058,607.021z M653.058,545.954H469.592
			c-9.64,0-17.441-7.814-17.441-17.442c0-9.639,7.802-17.453,17.441-17.453h183.466c9.639,0,17.441,7.814,17.441,17.453
			C670.499,538.139,662.697,545.954,653.058,545.954z M653.058,484.896H469.592c-9.64,0-17.441-7.812-17.441-17.452
			c0-9.639,7.802-17.453,17.441-17.453h183.466c9.639,0,17.441,7.814,17.441,17.453
			C670.499,477.084,662.697,484.896,653.058,484.896z"/>
		<path d="M755.861,349.188c-0.021-0.383-0.054-0.776-0.098-1.159c-0.033-0.339-0.077-0.688-0.131-1.027
			c-0.022-0.098-0.033-0.197-0.044-0.295c-0.055-0.295-0.11-0.601-0.175-0.896c-0.022-0.12-0.055-0.229-0.077-0.35
			c-0.088-0.371-0.175-0.754-0.284-1.125c0,0,0,0,0-0.011c-0.098-0.372-0.219-0.744-0.35-1.115
			c-0.011-0.055-0.021-0.109-0.055-0.165c-0.088-0.284-0.196-0.579-0.307-0.863c-0.043-0.12-0.098-0.24-0.142-0.36
			c-0.142-0.35-0.284-0.689-0.448-1.027c-0.174-0.382-0.359-0.754-0.557-1.125c-0.197-0.372-0.405-0.744-0.623-1.104
			c-0.208-0.35-0.427-0.689-0.656-1.028c-0.021-0.043-0.044-0.076-0.064-0.098c-0.219-0.317-0.438-0.634-0.678-0.94
			c-0.022-0.033-0.044-0.077-0.077-0.109c-0.229-0.306-0.47-0.601-0.732-0.896c-0.021-0.033-0.054-0.065-0.087-0.109
			c-0.229-0.262-0.459-0.524-0.71-0.787c-0.11-0.12-0.219-0.24-0.34-0.35c-0.186-0.197-0.382-0.394-0.579-0.579
			c-0.338-0.317-0.678-0.623-1.026-0.918L637.91,240.406l-0.601-0.513c-0.176-0.153-0.35-0.295-0.536-0.438
			c-0.152-0.131-0.306-0.251-0.47-0.36c-0.207-0.153-0.415-0.306-0.623-0.459c-0.021-0.011-0.043-0.033-0.076-0.043
			c-0.262-0.186-0.524-0.372-0.798-0.536c-0.907-0.579-1.836-1.082-2.797-1.519c-0.187-0.098-0.384-0.175-0.569-0.251
			c-0.295-0.131-0.59-0.251-0.896-0.361c-0.197-0.076-0.383-0.152-0.579-0.208c-0.229-0.087-0.459-0.164-0.688-0.229
			c-0.634-0.208-1.289-0.382-1.945-0.524c-0.186-0.044-0.372-0.076-0.558-0.109c-0.229-0.054-0.459-0.087-0.688-0.12
			c-0.065-0.022-0.142-0.033-0.219-0.043c-0.295-0.044-0.59-0.088-0.896-0.12c-0.119-0.011-0.24-0.022-0.36-0.033
			c-0.262-0.033-0.524-0.055-0.786-0.065c-0.492-0.033-0.995-0.055-1.498-0.055c-2.917,0-5.856,0.558-8.655,1.672
			c-7.967,3.202-13.529,10.535-14.469,19.07l-2.82,25.791l-11.135,101.961c-0.842,7.683,2.196,15.289,8.086,20.283
			c1.334,1.126,2.776,2.087,4.285,2.875c0.601,0.316,1.212,0.612,1.836,0.863c2.83,1.17,5.857,1.771,8.917,1.771
			c2.099,0,4.218-0.284,6.284-0.863l94.727-26.6l29.551-8.294c8.294-2.328,14.622-9.049,16.447-17.475
			c0.35-1.628,0.524-3.278,0.524-4.907v-0.055C755.905,350.073,755.893,349.625,755.861,349.188z M635.234,353.734l5.485-50.161
			l43.299,36.467L635.234,353.734z"/>
		<polygon fill="#FFFFFF" points="684.018,340.04 635.234,353.734 640.719,303.573 		"/>
		<path d="M670.499,467.444c0,9.64-7.803,17.452-17.441,17.452H469.592c-9.64,0-17.441-7.812-17.441-17.452
			c0-9.639,7.802-17.453,17.441-17.453h183.466C662.697,449.991,670.499,457.805,670.499,467.444z"/>
		<path d="M670.499,528.511c0,9.628-7.803,17.442-17.441,17.442H469.592c-9.64,0-17.441-7.814-17.441-17.442
			c0-9.639,7.802-17.453,17.441-17.453h183.466C662.697,511.058,670.499,518.873,670.499,528.511z"/>
		<path d="M670.499,589.569c0,9.638-7.803,17.452-17.441,17.452H469.592c-9.64,0-17.441-7.814-17.441-17.452
			c0-9.64,7.802-17.442,17.441-17.442h183.466C662.697,572.127,670.499,579.929,670.499,589.569z"/>
	</g>
</g>
</svg>
