<?xml version="1.0" encoding="utf-8"?>
<!-- Generator: Adobe Illustrator 16.0.0, SVG Export Plug-In . SVG Version: 6.00 Build 0)  -->
<!DOCTYPE svg PUBLIC "-//W3C//DTD SVG 1.1//EN" "http://www.w3.org/Graphics/SVG/1.1/DTD/svg11.dtd">
<svg version="1.1" id="Calque_1" xmlns="http://www.w3.org/2000/svg" xmlns:xlink="http://www.w3.org/1999/xlink" x="0px" y="0px"
	 width="841.889px" height="843.084px" viewBox="0 0 841.889 843.084" enable-background="new 0 0 841.889 843.084"
	 xml:space="preserve">
<g>
	<g>
		<path d="M656.633,658.85c0,10.209-0.639,20.271-1.884,30.149c-56.085,48.644-140.014,79.547-233.805,79.547
			c-93.79,0-177.71-30.903-233.796-79.547c-1.245-9.878-1.883-19.94-1.883-30.149c0-131.065,105.521-237.309,235.679-237.309
			C551.112,421.542,656.633,527.785,656.633,658.85z"/>
		<g>
			<path d="M420.947,497.46c-92.722,0-168.157-75.435-168.157-168.157c0-92.722,75.435-168.156,168.157-168.156
				c92.722,0,168.156,75.435,168.156,168.156C589.103,422.025,513.668,497.46,420.947,497.46z"/>
			<path fill="#FFFFFF" d="M420.947,173.646c85.967,0,155.656,69.689,155.656,155.656S506.913,484.96,420.947,484.96
				s-155.657-69.69-155.657-155.657S334.98,173.646,420.947,173.646 M420.947,148.646c-24.377,0-48.039,4.78-70.327,14.207
				c-21.516,9.1-40.833,22.123-57.417,38.706c-16.583,16.583-29.606,35.9-38.706,57.416c-9.427,22.289-14.208,45.95-14.208,70.328
				s4.78,48.039,14.208,70.328c9.1,21.515,22.123,40.833,38.706,57.417c16.583,16.583,35.901,29.605,57.416,38.706
				c22.289,9.427,45.95,14.207,70.328,14.207c24.378,0,48.039-4.78,70.327-14.207c21.516-9.101,40.833-22.123,57.416-38.706
				c16.583-16.584,29.605-35.901,38.706-57.417c9.427-22.288,14.207-45.95,14.207-70.327s-4.78-48.039-14.207-70.327
				c-9.101-21.516-22.123-40.833-38.706-57.416s-35.9-29.606-57.416-38.706C468.986,153.427,445.324,148.646,420.947,148.646
				L420.947,148.646z"/>
		</g>
	</g>
	<circle fill="none" stroke="#000000" stroke-width="40" stroke-miterlimit="10" cx="420.945" cy="421.542" r="348.505"/>
</g>
</svg>
