<?xml version="1.0" encoding="utf-8"?>
<!-- Generator: Adobe Illustrator 16.0.0, SVG Export Plug-In . SVG Version: 6.00 Build 0)  -->
<!DOCTYPE svg PUBLIC "-//W3C//DTD SVG 1.1//EN" "http://www.w3.org/Graphics/SVG/1.1/DTD/svg11.dtd">
<svg version="1.1" id="Calque_1" xmlns="http://www.w3.org/2000/svg" xmlns:xlink="http://www.w3.org/1999/xlink" x="0px" y="0px"
	 width="841.889px" height="843.084px" viewBox="0 0 841.889 843.084" enable-background="new 0 0 841.889 843.084"
	 xml:space="preserve">
<g>
	
		<ellipse transform="matrix(0.9676 0.2524 -0.2524 0.9676 161.9471 -40.7748)" cx="239.886" cy="610.774" rx="143.122" ry="107.772"/>
	<path d="M381.047,623.881c0,17.997-9.458,32.588-21.126,32.588h-21.312c-11.668,0-21.126-14.591-21.126-32.588V154.505
		c0-17.998,9.458-32.588,21.126-32.588h21.312c11.668,0,21.126,14.59,21.126,32.588V623.881z"/>
	
		<ellipse transform="matrix(0.9676 0.2524 -0.2524 0.9676 173.6749 -132.1846)" cx="602.002" cy="610.774" rx="143.121" ry="107.772"/>
	<path d="M743.162,623.881c0,17.997-9.457,32.588-21.127,32.588h-21.312c-11.668,0-21.126-14.591-21.126-32.588V154.505
		c0-17.998,9.458-32.588,21.126-32.588h21.312c11.67,0,21.127,14.59,21.127,32.588V623.881z"/>
	<path d="M743.162,172.098c0,17.999-14.591,32.588-32.588,32.588H350.071c-17.998,0-32.588-14.59-32.588-32.588v-17.593
		c0-17.998,14.591-32.588,32.588-32.588h360.503c17.997,0,32.588,14.59,32.588,32.588V172.098z"/>
</g>
</svg>
