<?xml version="1.0" encoding="utf-8"?>
<!-- Generator: Adobe Illustrator 16.0.0, SVG Export Plug-In . SVG Version: 6.00 Build 0)  -->
<!DOCTYPE svg PUBLIC "-//W3C//DTD SVG 1.1//EN" "http://www.w3.org/Graphics/SVG/1.1/DTD/svg11.dtd">
<svg version="1.1" id="Calque_1" xmlns="http://www.w3.org/2000/svg" xmlns:xlink="http://www.w3.org/1999/xlink" x="0px" y="0px"
	 width="841.889px" height="843.084px" viewBox="0 0 841.889 843.084" enable-background="new 0 0 841.889 843.084"
	 xml:space="preserve">
<path d="M420.889,714.537c-9.652,0-18.22-4.641-23.572-11.783L206.004,453.079c-0.425-0.541-0.854-1.109-1.281-1.68
	c-3.217-4.527-5.124-10.076-5.124-16.084c0-15.317,12.412-27.758,27.756-27.758h387.179c15.313,0,27.756,12.44,27.756,27.758
	c0,5.551-1.648,10.762-4.47,15.087c0,0.027,0,0.027-0.026,0.027l-2.505,3.275L444.456,702.754
	C439.109,709.896,430.537,714.537,420.889,714.537z"/>
<path d="M216.906,756.295c-9.559,0-17.308-9.719-17.308-21.704l0,0c0-11.988,7.749-21.708,17.308-21.708h408.077
	c9.559,0,17.307,9.72,17.307,21.708l0,0c0,11.985-7.748,21.704-17.307,21.704H216.906z"/>
<path d="M500.446,468.165c0,19.926-23.74,36.077-53.025,36.077h-52.951c-29.283,0-53.024-16.151-53.024-36.077V122.867
	c0-19.925,23.741-36.077,53.024-36.077h52.951c29.285,0,53.025,16.152,53.025,36.077V468.165z"/>
</svg>
