<?xml version="1.0" encoding="utf-8"?>
<!-- Generator: Adobe Illustrator 16.0.0, SVG Export Plug-In . SVG Version: 6.00 Build 0)  -->
<!DOCTYPE svg PUBLIC "-//W3C//DTD SVG 1.1//EN" "http://www.w3.org/Graphics/SVG/1.1/DTD/svg11.dtd">
<svg version="1.1" id="Calque_1" xmlns="http://www.w3.org/2000/svg" xmlns:xlink="http://www.w3.org/1999/xlink" x="0px" y="0px"
	 width="841.889px" height="843.084px" viewBox="0 0 841.889 843.084" enable-background="new 0 0 841.889 843.084"
	 xml:space="preserve">
<path d="M703.766,692.042H138.123c-29.047,0-52.679-22.81-52.679-50.847V201.888c0-28.037,23.632-50.847,52.679-50.847h565.643
	c29.047,0,52.679,22.81,52.679,50.847v439.307C756.445,669.232,732.813,692.042,703.766,692.042z M138.123,196.042
	c-4.162,0-7.679,2.677-7.679,5.847v439.307c0,3.169,3.517,5.847,7.679,5.847h565.643c4.162,0,7.679-2.678,7.679-5.847V201.888
	c0-3.169-3.517-5.847-7.679-5.847H138.123z"/>
<path d="M541.806,421.582c0,6.728-3.653,12.699-9.279,16.431L335.928,571.37c-0.427,0.296-0.876,0.595-1.323,0.893
	c-3.565,2.242-7.936,3.572-12.666,3.572c-12.06,0-21.856-8.652-21.856-19.349V286.597c0-10.676,9.796-19.349,21.856-19.349
	c4.372,0,8.474,1.151,11.88,3.115c0.022,0,0.022,0,0.022,0.021l2.579,1.746l196.105,133.02
	C538.153,408.881,541.806,414.853,541.806,421.582z"/>
</svg>
