<?xml version="1.0" encoding="utf-8"?>
<!-- Generator: Adobe Illustrator 16.0.0, SVG Export Plug-In . SVG Version: 6.00 Build 0)  -->
<!DOCTYPE svg PUBLIC "-//W3C//DTD SVG 1.1//EN" "http://www.w3.org/Graphics/SVG/1.1/DTD/svg11.dtd">
<svg version="1.1" id="Calque_1" xmlns="http://www.w3.org/2000/svg" xmlns:xlink="http://www.w3.org/1999/xlink" x="0px" y="0px"
	 width="841.889px" height="843.084px" viewBox="0 0 841.889 843.084" enable-background="new 0 0 841.889 843.084"
	 xml:space="preserve">
<g>
	<g>
		<path d="M211.502,182.127c54.107-97.735,177.639-133.229,275.371-79.122c27.978,15.488,51.249,36.656,69.171,62.915
			c43.444,63.659,47.256,145.069,9.949,212.456c-26.209,47.346-69.288,81.649-121.3,96.594
			c-52.011,14.944-106.728,8.739-154.071-17.472c-27.979-15.488-51.25-36.657-69.173-62.917
			C178.005,330.923,174.195,249.516,211.502,182.127z M450.761,168.235c-61.764-34.194-139.835-11.763-174.031,50.003
			c-23.581,42.596-21.165,94.062,6.305,134.314c11.298,16.555,26,29.918,43.697,39.716c29.922,16.563,64.502,20.485,97.373,11.041
			c32.87-9.444,60.094-31.124,76.658-61.044c23.582-42.597,21.167-94.064-6.303-134.316
			C483.163,191.395,468.46,178.033,450.761,168.235z"/>
		<path d="M98.315,698.315c-10.274,18.562,1.219,44.579,25.667,58.116l1.756,0.972c24.45,13.537,52.597,9.464,62.873-9.098
			l158.834-286.9c10.271-18.562-1.219-44.577-25.668-58.114l-1.754-0.971c-24.451-13.538-52.602-9.464-62.876,9.095L98.315,698.315z
			"/>
	</g>
	<path d="M671.111,230.144c-11.046,0-20-8.954-20-20V97.69c0-11.046,8.954-20,20-20s20,8.954,20,20v112.455
		C691.111,221.19,682.156,230.144,671.111,230.144z"/>
	<path d="M727.337,173.917H614.883c-11.046,0-20-8.954-20-20s8.954-20,20-20h112.454c11.046,0,20,8.954,20,20
		S738.383,173.917,727.337,173.917z"/>
</g>
</svg>
