<?xml version="1.0" encoding="utf-8"?>
<!-- Generator: Adobe Illustrator 16.0.0, SVG Export Plug-In . SVG Version: 6.00 Build 0)  -->
<!DOCTYPE svg PUBLIC "-//W3C//DTD SVG 1.1//EN" "http://www.w3.org/Graphics/SVG/1.1/DTD/svg11.dtd">
<svg version="1.1" id="Calque_1" xmlns="http://www.w3.org/2000/svg" xmlns:xlink="http://www.w3.org/1999/xlink" x="0px" y="0px"
	 width="706px" height="679.445px" viewBox="243.775 0 706 679.445" enable-background="new 243.775 0 706 679.445"
	 xml:space="preserve">
<path fill="#014D6B" d="M778.543,349.767c-24.348-24.348-95.675-41.405-141.339-50.196c18.727-12.897,31.046-34.469,31.046-58.878
	c0-28.526-16.836-53.128-41.06-64.581c6.806-10.882,18.855-18.156,32.607-18.156c6.026,0,10.911-4.885,10.911-10.912
	s-4.885-10.912-10.911-10.912c-23.704,0-44.177,13.778-54.026,33.72c-2.953-0.374-5.939-0.629-8.995-0.629
	c-2.872,0-5.687,0.218-8.474,0.549c-9.864-19.899-30.315-33.64-53.989-33.64c-6.027,0-10.911,4.885-10.911,10.912
	s4.884,10.912,10.911,10.912c13.667,0,25.653,7.179,32.483,17.949c-24.456,11.362-41.493,36.095-41.493,64.788
	c0,24.409,12.319,45.977,31.047,58.878c-45.668,8.791-116.999,25.849-141.346,50.196c-37.412,37.415-37.408,98.297,0,135.711
	c18.12,18.125,42.219,28.107,67.85,28.107c23.529,0,45.751-8.426,63.261-23.83c11.231,8.988,24.816,15.135,39.746,17.143v36.414
	h21.827v-36.414c14.927-2.012,28.515-8.158,39.743-17.143c17.505,15.396,39.731,23.83,63.26,23.83c0.004,0,0.004,0,0.004,0
	c25.631,0,49.728-9.979,67.848-28.107C815.953,448.064,815.953,387.186,778.543,349.767z M596.777,191.046
	c27.377,0,49.651,22.274,49.651,49.647s-22.274,49.643-49.651,49.643c-27.375,0-49.649-22.267-49.649-49.643
	C547.127,213.32,569.398,191.046,596.777,191.046z M482.855,491.76c-19.804,0-38.418-7.711-52.418-21.713
	c-28.904-28.904-28.904-75.943,0-104.852c22.383-22.383,107.822-40.685,153.214-48.359c-7.67,45.385-25.969,130.811-48.362,153.215
	C521.281,484.049,502.663,491.76,482.855,491.76z M596.777,364.424c4.463,20.714,10.242,43.93,17.284,64.951h-34.567
	C586.532,408.354,592.315,385.138,596.777,364.424z M596.777,485.824c-13.798,0-26.459-4.768-36.56-12.676
	c3.939-6.295,7.646-13.74,11.116-21.945h50.89c3.469,8.205,7.179,15.65,11.118,21.945
	C623.237,481.057,610.573,485.824,596.777,485.824z M763.115,470.047c-14.003,14.002-32.618,21.713-52.419,21.713
	c-19.805,0-38.423-7.711-52.426-21.713c-22.387-22.387-40.688-107.826-48.362-153.215c45.388,7.671,130.81,25.966,153.207,48.363
	C792.015,394.106,792.015,441.143,763.115,470.047z"/>
<path fill="#014D6B" d="M596.775,630.724c-77.729,0-150.806-30.27-205.769-85.232c-54.963-54.963-85.232-128.039-85.232-205.769
	c0-77.729,30.269-150.806,85.232-205.769c54.963-54.964,128.041-85.232,205.77-85.232c77.73,0,150.807,30.269,205.768,85.232
	c54.965,54.963,85.234,128.04,85.234,205.769c0,77.729-30.27,150.806-85.234,205.769
	C747.581,600.454,674.505,630.724,596.775,630.724z M596.775,72.419c-71.399,0-138.526,27.805-189.012,78.292
	c-50.487,50.486-78.292,117.612-78.292,189.012s27.805,138.525,78.292,189.013s117.613,78.292,189.013,78.292
	c71.4,0,138.525-27.805,189.014-78.292c50.486-50.487,78.291-117.613,78.291-189.013s-27.805-138.525-78.291-189.013
	C735.3,100.224,668.175,72.419,596.775,72.419z"/>
</svg>
