<?xml version="1.0" encoding="utf-8"?>
<!-- Generator: Adobe Illustrator 16.0.0, SVG Export Plug-In . SVG Version: 6.00 Build 0)  -->
<!DOCTYPE svg PUBLIC "-//W3C//DTD SVG 1.1//EN" "http://www.w3.org/Graphics/SVG/1.1/DTD/svg11.dtd">
<svg version="1.1" id="Calque_1" xmlns="http://www.w3.org/2000/svg" xmlns:xlink="http://www.w3.org/1999/xlink" x="0px" y="0px"
	 width="841.889px" height="843.084px" viewBox="0 0 841.889 843.084" enable-background="new 0 0 841.889 843.084"
	 xml:space="preserve">
<path d="M415.169,68.399H141.992c-30.884,0-56.008,25.125-56.008,56.019v426.087c0,30.883,25.135,56.008,56.019,56.008h273.166
	c15.431,0,29.442-6.273,39.583-16.426c1.585-1.585,3.071-3.268,4.459-5.026c0.558-0.7,1.093-1.422,1.617-2.154c0,0,0,0,0-0.011
	c1.301-1.824,2.503-3.737,3.585-5.715c0.863-1.596,1.65-3.224,2.36-4.896c0.535-1.256,1.017-2.535,1.465-3.835
	c1.912-5.64,2.95-11.672,2.95-17.944V124.418C471.188,93.524,446.052,68.399,415.169,68.399z M424.841,550.506
	c0,0.152,0,0.316-0.022,0.469c0.011,0.088,0,0.187-0.011,0.273c0,0.066-0.011,0.121-0.022,0.186c0,0.154-0.021,0.296-0.044,0.448
	c-0.043,0.307-0.098,0.602-0.174,0.896c-0.033,0.143-0.066,0.284-0.12,0.426c0,0.044-0.011,0.088-0.033,0.121
	c-0.011,0.065-0.033,0.131-0.055,0.186c-0.284,0.863-0.678,1.66-1.181,2.393c-0.35,0.515-0.742,0.995-1.18,1.433
	c-1.759,1.759-4.164,2.841-6.831,2.841H142.003c-2.994,0-5.683-1.377-7.464-3.529c-0.153-0.175-0.295-0.361-0.426-0.547
	c-0.416-0.568-0.754-1.19-1.027-1.836c-0.065-0.143-0.121-0.295-0.175-0.437c-0.285-0.776-0.481-1.607-0.546-2.459
	c-0.033-0.284-0.044-0.569-0.044-0.863V124.418c0-5.333,4.339-9.671,9.672-9.671h273.176c5.333,0,9.672,4.338,9.672,9.671V550.506z"
	/>
<path fill="#FFFFFF" d="M415.169,114.747H141.992c-5.333,0-9.672,4.338-9.672,9.671v426.087c0,0.294,0.011,0.579,0.044,0.863
	c0.065,0.852,0.262,1.683,0.546,2.459c0.054,0.142,0.109,0.294,0.175,0.437c0.273,0.646,0.611,1.268,1.027,1.836
	c0.131,0.186,0.273,0.372,0.426,0.547c1.782,2.152,4.47,3.529,7.464,3.529h273.166c2.667,0,5.071-1.082,6.831-2.841
	c0.438-0.438,0.83-0.918,1.18-1.433c0.503-0.732,0.896-1.529,1.181-2.393c0.021-0.055,0.044-0.12,0.055-0.186
	c0.022-0.033,0.033-0.077,0.033-0.121c0.054-0.142,0.087-0.283,0.12-0.426c0.076-0.295,0.131-0.59,0.174-0.896
	c0.022-0.152,0.044-0.294,0.044-0.448c0.012-0.064,0.022-0.119,0.022-0.186c0.011-0.087,0.021-0.186,0.011-0.273
	c0.022-0.152,0.022-0.316,0.022-0.469V124.418C424.841,119.085,420.502,114.747,415.169,114.747z M368.745,439.506H186.011
	c-9.606,0-17.387-7.781-17.387-17.376c0-9.595,7.781-17.376,17.387-17.376h182.734c9.595,0,17.375,7.781,17.375,17.376
	C386.121,431.724,378.34,439.506,368.745,439.506z M368.745,378.689H186.011c-9.606,0-17.387-7.781-17.387-17.376
	c0-9.606,7.781-17.376,17.387-17.376h182.734c9.595,0,17.375,7.771,17.375,17.376C386.121,370.908,378.34,378.689,368.745,378.689z
	 M368.745,317.873H186.011c-9.606,0-17.387-7.781-17.387-17.388c0-9.595,7.781-17.376,17.387-17.376h182.734
	c9.595,0,17.375,7.781,17.375,17.376C386.121,310.092,378.34,317.873,368.745,317.873z"/>
<path d="M552.866,154.187H279.69c-30.884,0-56.008,25.125-56.008,56.02v426.086c0,30.884,25.135,56.008,56.019,56.008h273.166
	c15.431,0,29.441-6.272,39.582-16.425c1.585-1.585,3.071-3.269,4.459-5.027c0.559-0.7,1.093-1.421,1.618-2.153c0,0,0,0,0-0.011
	c1.3-1.825,2.503-3.737,3.585-5.715c0.863-1.596,1.649-3.225,2.359-4.896c0.535-1.256,1.017-2.536,1.465-3.836
	c1.913-5.639,2.95-11.671,2.95-17.944V210.206C608.885,179.312,583.749,154.187,552.866,154.187z M562.538,636.293
	c0,0.153,0,0.317-0.022,0.47c0.011,0.088,0,0.186-0.011,0.273c0,0.066-0.01,0.12-0.021,0.186c0,0.153-0.021,0.296-0.044,0.448
	c-0.044,0.307-0.099,0.601-0.174,0.896c-0.033,0.142-0.066,0.284-0.121,0.426c0,0.044-0.011,0.088-0.033,0.121
	c-0.011,0.064-0.033,0.131-0.055,0.186c-0.283,0.863-0.677,1.66-1.18,2.393c-0.351,0.515-0.743,0.994-1.181,1.432
	c-1.759,1.759-4.163,2.842-6.83,2.842H279.7c-2.994,0-5.682-1.377-7.464-3.529c-0.153-0.176-0.295-0.361-0.426-0.547
	c-0.416-0.568-0.754-1.191-1.027-1.837c-0.066-0.142-0.121-0.294-0.175-0.437c-0.284-0.775-0.48-1.607-0.546-2.459
	c-0.033-0.283-0.043-0.568-0.043-0.863V210.206c0-5.333,4.339-9.672,9.671-9.672h273.177c5.333,0,9.672,4.339,9.672,9.672V636.293z"
	/>
<path fill="#FFFFFF" d="M552.866,200.534H279.69c-5.333,0-9.671,4.339-9.671,9.672v426.086c0,0.295,0.011,0.58,0.043,0.863
	c0.066,0.852,0.262,1.684,0.546,2.459c0.055,0.143,0.109,0.295,0.175,0.437c0.273,0.646,0.611,1.269,1.027,1.837
	c0.13,0.186,0.273,0.371,0.426,0.547c1.782,2.152,4.47,3.529,7.464,3.529h273.166c2.667,0,5.071-1.083,6.83-2.842
	c0.438-0.438,0.83-0.917,1.181-1.432c0.503-0.732,0.896-1.529,1.18-2.393c0.021-0.055,0.044-0.121,0.055-0.186
	c0.022-0.033,0.033-0.077,0.033-0.121c0.055-0.142,0.088-0.284,0.121-0.426c0.075-0.296,0.13-0.59,0.174-0.896
	c0.022-0.152,0.044-0.295,0.044-0.448c0.012-0.065,0.021-0.119,0.021-0.186c0.011-0.088,0.021-0.186,0.011-0.273
	c0.022-0.152,0.022-0.316,0.022-0.47V210.206C562.538,204.873,558.199,200.534,552.866,200.534z M506.444,525.293H323.709
	c-9.606,0-17.387-7.781-17.387-17.375c0-9.596,7.781-17.377,17.387-17.377h182.734c9.594,0,17.375,7.781,17.375,17.377
	C523.819,517.511,516.037,525.293,506.444,525.293z M506.444,464.477H323.709c-9.606,0-17.387-7.781-17.387-17.377
	c0-9.605,7.781-17.376,17.387-17.376h182.734c9.594,0,17.375,7.771,17.375,17.376C523.819,456.696,516.037,464.477,506.444,464.477z
	 M506.444,403.66H323.709c-9.606,0-17.387-7.781-17.387-17.387c0-9.595,7.781-17.376,17.387-17.376h182.734
	c9.594,0,17.375,7.781,17.375,17.376C523.819,395.879,516.037,403.66,506.444,403.66z"/>
<path d="M755.865,349.192c-0.03-0.39-0.06-0.78-0.1-1.16c-0.03-0.34-0.08-0.69-0.13-1.03c-0.021-0.1-0.04-0.2-0.051-0.29
	c-0.05-0.3-0.109-0.61-0.17-0.9c-0.02-0.12-0.06-0.23-0.08-0.35c-0.09-0.37-0.17-0.75-0.279-1.13c0,0,0,0,0-0.01
	c-0.101-0.37-0.221-0.74-0.351-1.11c-0.01-0.06-0.02-0.11-0.06-0.17c-0.08-0.28-0.19-0.58-0.3-0.86
	c-0.051-0.12-0.101-0.24-0.15-0.36c-0.14-0.35-0.28-0.69-0.44-1.03c-0.18-0.38-0.359-0.75-0.56-1.12s-0.41-0.75-0.62-1.11
	c-0.21-0.35-0.43-0.69-0.66-1.02c-0.02-0.05-0.04-0.08-0.06-0.1c-0.22-0.32-0.44-0.64-0.68-0.94c-0.021-0.03-0.051-0.08-0.08-0.11
	c-0.23-0.31-0.471-0.6-0.73-0.9c-0.02-0.03-0.05-0.06-0.09-0.11c-0.23-0.26-0.46-0.52-0.71-0.78c-0.11-0.12-0.22-0.24-0.34-0.35
	c-0.181-0.2-0.38-0.4-0.58-0.58c-0.33-0.32-0.67-0.63-1.021-0.92c-0.3-0.25-0.62-0.5-0.93-0.74c-5.81-4.4-13.33-5.83-20.34-3.86
	l-42.33,11.89h-0.01l-48.78,13.69l5.479-50.16l4.74-43.36c0.721-6.57-1.39-13.14-5.81-18.06c-0.55-0.61-1.13-1.19-1.73-1.75
	l-0.6-0.51c-0.18-0.15-0.351-0.29-0.54-0.44c-0.15-0.13-0.311-0.25-0.47-0.36c-0.21-0.15-0.42-0.3-0.62-0.46
	c-0.03-0.01-0.05-0.03-0.08-0.04c-0.26-0.19-0.521-0.37-0.8-0.53c-0.9-0.58-1.83-1.09-2.79-1.52c-0.19-0.1-0.391-0.18-0.57-0.26
	c-0.3-0.13-0.59-0.25-0.9-0.36c-0.199-0.07-0.38-0.15-0.58-0.2c-0.229-0.09-0.46-0.17-0.689-0.23c-0.63-0.21-1.29-0.39-1.94-0.53
	c-0.189-0.04-0.37-0.07-0.56-0.11c-0.23-0.05-0.46-0.08-0.69-0.12c-0.06-0.02-0.14-0.03-0.22-0.04c-0.29-0.04-0.59-0.09-0.89-0.12
	c-0.12-0.01-0.24-0.02-0.36-0.03c-0.27-0.04-0.53-0.06-0.79-0.07c-0.49-0.03-1-0.05-1.5-0.05h-196.93c-31,0-56.22,25.23-56.22,56.23
	v427.81c0,31,25.22,56.22,56.22,56.22h274.27c31.011,0,56.24-25.22,56.24-56.22v-367.95
	C755.905,350.072,755.895,349.622,755.865,349.192z M709.385,718.462c0,5.35-4.36,9.7-9.721,9.7h-274.27c-5.34,0-9.7-4.351-9.7-9.7
	v-427.81c0-5.35,4.36-9.7,9.7-9.7h170.99l-11.141,101.96c-0.84,7.68,2.2,15.29,8.09,20.28c1.33,1.13,2.78,2.09,4.28,2.88
	c0.6,0.31,1.22,0.6,1.84,0.86c2.83,1.17,5.86,1.77,8.92,1.77c2.101,0,4.21-0.28,6.28-0.86l94.73-26.6V718.462z"/>
<path fill="#FFFFFF" d="M709.385,381.242v337.22c0,5.35-4.36,9.7-9.721,9.7h-274.27c-5.34,0-9.7-4.351-9.7-9.7v-427.81
	c0-5.35,4.36-9.7,9.7-9.7h170.99l-11.141,101.96c-0.84,7.68,2.2,15.29,8.09,20.28c1.33,1.13,2.78,2.09,4.28,2.88
	c0.6,0.31,1.22,0.6,1.84,0.86c2.83,1.17,5.86,1.77,8.92,1.77c2.101,0,4.21-0.28,6.28-0.86L709.385,381.242z"/>
<path d="M755.861,349.188c-0.021-0.383-0.054-0.776-0.098-1.159c-0.033-0.339-0.077-0.688-0.131-1.027
	c-0.022-0.098-0.033-0.197-0.044-0.295c-0.055-0.295-0.11-0.601-0.175-0.896c-0.022-0.12-0.055-0.229-0.077-0.35
	c-0.088-0.371-0.175-0.754-0.284-1.125c0,0,0,0,0-0.011c-0.098-0.372-0.219-0.744-0.35-1.115c-0.011-0.055-0.021-0.109-0.055-0.165
	c-0.088-0.284-0.196-0.579-0.307-0.863c-0.043-0.12-0.098-0.24-0.142-0.36c-0.142-0.35-0.284-0.689-0.448-1.027
	c-0.174-0.382-0.359-0.754-0.557-1.125c-0.197-0.372-0.405-0.744-0.623-1.104c-0.208-0.35-0.427-0.689-0.656-1.028
	c-0.021-0.043-0.044-0.076-0.064-0.098c-0.219-0.317-0.438-0.634-0.678-0.94c-0.022-0.033-0.044-0.077-0.077-0.109
	c-0.229-0.306-0.47-0.601-0.732-0.896c-0.021-0.033-0.054-0.065-0.087-0.109c-0.229-0.262-0.459-0.524-0.71-0.787
	c-0.11-0.12-0.219-0.24-0.34-0.35c-0.186-0.197-0.382-0.394-0.579-0.579c-0.338-0.317-0.678-0.623-1.026-0.918L637.91,240.406
	l-0.601-0.513c-0.176-0.153-0.35-0.295-0.536-0.438c-0.152-0.131-0.306-0.251-0.47-0.36c-0.207-0.153-0.415-0.306-0.623-0.459
	c-0.021-0.011-0.043-0.033-0.076-0.043c-0.262-0.186-0.524-0.372-0.798-0.536c-0.907-0.579-1.836-1.082-2.797-1.519
	c-0.187-0.098-0.384-0.175-0.569-0.251c-0.295-0.131-0.59-0.251-0.896-0.361c-0.197-0.076-0.383-0.152-0.579-0.208
	c-0.229-0.087-0.459-0.164-0.688-0.229c-0.634-0.208-1.289-0.382-1.945-0.524c-0.186-0.044-0.372-0.076-0.558-0.109
	c-0.229-0.054-0.459-0.087-0.688-0.12c-0.065-0.022-0.142-0.033-0.219-0.043c-0.295-0.044-0.59-0.088-0.896-0.12
	c-0.119-0.011-0.24-0.022-0.36-0.033c-0.262-0.033-0.524-0.055-0.786-0.065c-0.492-0.033-0.995-0.055-1.498-0.055
	c-2.917,0-5.856,0.558-8.655,1.672c-7.967,3.202-13.529,10.535-14.469,19.07l-2.82,25.791l-11.135,101.961
	c-0.842,7.683,2.196,15.289,8.086,20.283c1.334,1.126,2.776,2.087,4.285,2.875c0.601,0.316,1.212,0.612,1.836,0.863
	c2.83,1.17,5.857,1.771,8.917,1.771c2.099,0,4.218-0.284,6.284-0.863l94.727-26.6l29.551-8.294
	c8.294-2.328,14.622-9.049,16.447-17.475c0.35-1.628,0.524-3.278,0.524-4.907v-0.055
	C755.905,350.073,755.893,349.625,755.861,349.188z M635.234,353.734l5.485-50.161l43.299,36.467L635.234,353.734z"/>
<polygon fill="#FFFFFF" points="684.018,340.04 635.234,353.734 640.719,303.573 "/>
<polygon points="438.838,318.09 456.831,318.09 456.831,390.8 478.617,390.8 478.617,297.073 451.121,297.073 "/>
<path d="M334.338,281.411c3.692-4.358,6.8-8.199,9.235-11.415c2.559-3.38,4.467-6.253,5.809-8.74
	c2.813-5.08,4.24-10.374,4.24-15.734c0-8.509-3.141-15.747-9.325-21.502c-6.069-5.686-13.641-8.569-22.502-8.569
	c-12.771,0-28.607,5.338-31.525,30.766l-0.575,5.013h21.759l0.485-3.952c1.216-9.912,5.858-11.249,10.239-11.249
	c2.917,0,5.272,0.9,7.2,2.751c1.902,1.828,2.788,3.953,2.788,6.688c0,1.896-0.833,4.231-2.517,7.008
	c-0.926,1.588-2.332,3.637-4.178,6.088c-1.914,2.54-4.325,5.597-7.146,9.062l-35.497,42.98h70.959v-21.018h-26.358L334.338,281.411z
	"/>
<path d="M203.735,169.868c4.369-4.739,6.577-10.714,6.577-17.833c0-8.146-2.847-14.922-8.447-20.13
	c-5.522-5.177-12.669-7.802-21.241-7.802c-8.47,0-15.265,2.266-20.197,6.735c-4.851,4.395-8.06,11.169-9.539,20.134l-0.864,5.233
	h21.655l0.774-3.537c0.912-4.16,2.134-5.869,2.812-6.531c1.087-0.93,2.834-1.402,5.195-1.402c2.613,0,4.622,0.716,6.192,2.237
	c1.503,1.412,2.203,3.177,2.203,5.555c0,4.039-1.556,5.548-2.938,6.429c-0.172,0.111-1.875,1.089-8.476,1.089h-4.5v19.92h4.5
	c5.432,0,7.819,0.921,8.729,1.453c1.671,0.994,3.892,2.937,3.892,8.314c0,3.138-0.918,5.618-2.765,7.54
	c-1.869,1.895-4.112,2.777-7.059,2.777c-3.017,0-5.317-0.714-7.034-2.184c-1.722-1.473-2.795-3.667-3.283-6.706l-0.608-3.786
	h-21.148l0.487,4.942c0.627,6.349,2.133,11.279,4.616,15.093c5.801,8.809,14.709,13.275,26.478,13.275
	c9.156,0,16.83-2.848,22.808-8.464c6.059-5.691,9.13-13.072,9.13-21.938C211.684,181.66,209.015,174.819,203.735,169.868z"/>
</svg>
