<?xml version="1.0" encoding="utf-8"?>
<!-- Generator: Adobe Illustrator 16.0.0, SVG Export Plug-In . SVG Version: 6.00 Build 0)  -->
<!DOCTYPE svg PUBLIC "-//W3C//DTD SVG 1.1//EN" "http://www.w3.org/Graphics/SVG/1.1/DTD/svg11.dtd">
<svg version="1.1" id="Calque_1" xmlns="http://www.w3.org/2000/svg" xmlns:xlink="http://www.w3.org/1999/xlink" x="0px" y="0px"
	 width="841.889px" height="843.084px" viewBox="0 0 841.889 843.084" enable-background="new 0 0 841.889 843.084"
	 xml:space="preserve">
<path d="M699.963,126.697c-0.471-14.888-12.674-26.711-27.569-26.711H169.928c-14.864,0-27.055,11.777-27.566,26.632l-5.207,151
	c-0.257,7.477,2.532,14.736,7.729,20.116c5.198,5.38,12.357,8.418,19.837,8.418h21.696c13.27,0,24.659-9.45,27.108-22.492
	c10.423-55.506,24.604-71.904,30.212-76.372c7.152-5.698,27.482-15.254,83.267-15.254h22.317v416.74
	c0,38.071-4.938,49.991-6.245,52.479c-2.408,1.494-14.046,7.336-52.454,10.271c-14.376,1.099-25.48,13.085-25.48,27.504v16.489
	c0,15.234,12.35,27.583,27.583,27.583h259.043c15.234,0,27.583-12.349,27.583-27.583v-16.489c0-14.471-11.183-26.479-25.613-27.513
	c-40.016-2.864-52.289-8.652-54.915-10.196c-1.141-1.956-5.82-11.835-5.82-42.131V192.033h21.884
	c61.909,0,79.146,11.084,82.957,14.482c5.237,4.669,18.75,21.614,31.122,77.967c2.777,12.653,13.985,21.668,26.94,21.668h21.262
	c7.467,0,14.613-3.027,19.809-8.389c5.197-5.363,7.996-12.603,7.76-20.065L699.963,126.697z"/>
</svg>
